STARTFONT 2.1
FONT -XSYMB-XSymb1_sub-Medium-R-Normal--18-180-75-75-P-140-xsymb-xsymb1
SIZE 18 75 75
FONTBOUNDINGBOX 26 18 0 -9
STARTPROPERTIES 25
FONT_NAME "XSymb1Medium"
FONT_ASCENT 13
FONT_DESCENT 5
QUAD_WIDTH 18
X_HEIGHT 6
CAP_HEIGHT 7
FONTNAME_REGISTRY ""
FAMILY_NAME "XSymb1_sub"
FOUNDRY "XSYMB"
WEIGHT_NAME "Medium"
SETWIDTH_NAME "Normal"
SLANT "R"
ADD_STYLE_NAME ""
PIXEL_SIZE 18
POINT_SIZE 180
RESOLUTION_X 75
RESOLUTION_Y 75
RESOLUTION 75
SPACING "P"
AVERAGE_WIDTH 140
CHARSET_REGISTRY "xsymb"
CHARSET_ENCODING "xsymb1"
CHARSET_COLLECTIONS "ASCII ISOLatin1Encoding FontSpecific"
FULL_NAME "XSymb1 Medium"
COPYRIGHT """"""1997-2001 Free Software Foundation, Inc.""""""
ENDPROPERTIES
CHARS 169
STARTCHAR verticaldots
ENCODING 33
SWIDTH 375 0
DWIDTH 8 0
BBX 2 15 3 -6
BITMAP
C0
C0
C0
00
00
00
C0
C0
C0
00
00
00
C0
C0
C0
ENDCHAR
STARTCHAR backslash1
ENCODING 34
SWIDTH 375 0
DWIDTH 9 0
BBX 8 17 0 -7
BITMAP
C0
C0
E0
70
70
38
18
1C
0C
0E
06
07
03
03
00
3F
7F
ENDCHAR
STARTCHAR dagger
ENCODING 35
SWIDTH 375 0
DWIDTH 11 0
BBX 8 17 2 -7
BITMAP
7E
7E
7E
18
FF
FF
18
3C
7E
7E
7E
7E
7E
7E
18
18
18
ENDCHAR
STARTCHAR percent2
ENCODING 38
SWIDTH 1250 0
DWIDTH 15 0
BBX 14 14 0 -4
BITMAP
7F0C
FFD8
CCF8
CC70
FCE0
79C0
0380
0300
0678
0EFC
1CCC
38CC
70FC
6078
ENDCHAR
STARTCHAR guilsinglright
ENCODING 39
SWIDTH 375 0
DWIDTH 8 0
BBX 5 8 2 -2
BITMAP
C0
E0
70
38
38
70
E0
C0
ENDCHAR
STARTCHAR NG
ENCODING 40
SWIDTH 375 0
DWIDTH 14 0
BBX 11 14 2 -4
BITMAP
DF00
FF80
E0C0
C060
C060
C060
C060
C060
C060
C060
C060
CC60
CFE0
CFC0
ENDCHAR
STARTCHAR OE
ENCODING 41
SWIDTH 1500 0
DWIDTH 18 0
BBX 15 14 2 -4
BITMAP
1FFE
3FFE
6180
C180
C180
C180
C1FE
C1FE
C180
C180
C180
6180
3FFE
1FFE
ENDCHAR
STARTCHAR dotlessj
ENCODING 42
SWIDTH 375 0
DWIDTH 8 0
BBX 6 15 0 -9
BITMAP
0C
0C
0C
0C
0C
0C
0C
0C
0C
0C
0C
0C
0C
FC
F8
ENDCHAR
STARTCHAR ng
ENCODING 43
SWIDTH 375 0
DWIDTH 11 0
BBX 8 16 2 -9
BITMAP
CC
DE
F7
E3
C3
C3
C3
C3
C3
C3
C3
83
03
1B
1F
0E
ENDCHAR
STARTCHAR oe
ENCODING 44
SWIDTH 1416 0
DWIDTH 17 0
BBX 14 11 2 -4
BITMAP
7CF8
FFFC
E79C
C30C
C30C
C3FC
C3F8
C300
E78C
FFFC
7CF8
ENDCHAR
STARTCHAR sharp
ENCODING 45
SWIDTH 375 0
DWIDTH 11 0
BBX 8 15 2 -6
BITMAP
06
67
67
6F
7E
FE
F6
E7
67
6F
7E
FE
F6
E6
60
ENDCHAR
STARTCHAR ceilingleft
ENCODING 46
SWIDTH 720 0
DWIDTH 9 0
BBX 6 17 2 -7
BITMAP
FC
FC
FC
C0
C0
C0
C0
C0
C0
C0
C0
C0
C0
C0
C0
C0
C0
ENDCHAR
STARTCHAR ceilingright
ENCODING 47
SWIDTH 720 0
DWIDTH 9 0
BBX 6 17 2 -7
BITMAP
FC
FC
FC
0C
0C
0C
0C
0C
0C
0C
0C
0C
0C
0C
0C
0C
0C
ENDCHAR
STARTCHAR zero1
ENCODING 48
SWIDTH 834 0
DWIDTH 12 0
BBX 11 14 2 -4
BITMAP
1FC0
3FE0
78E0
78E0
70E0
70E0
E0E0
E0E0
E1C0
E1C0
E3C0
E3C0
FF80
7F00
ENDCHAR
STARTCHAR one1
ENCODING 49
SWIDTH 834 0
DWIDTH 11 0
BBX 8 14 3 -4
BITMAP
07
FF
FF
1F
1E
3C
3C
78
78
F0
F0
E0
E0
E0
ENDCHAR
STARTCHAR two1
ENCODING 50
SWIDTH 834 0
DWIDTH 12 0
BBX 11 14 2 -4
BITMAP
1FC0
3FE0
78E0
00E0
01E0
03C0
0780
0F00
1E00
3C00
7800
F000
FF00
FF00
ENDCHAR
STARTCHAR three1
ENCODING 51
SWIDTH 834 0
DWIDTH 12 0
BBX 11 14 2 -4
BITMAP
1F80
3FC0
61E0
00E0
00E0
01E0
1FC0
1F80
01C0
00C0
01C0
E3C0
FF80
7F00
ENDCHAR
STARTCHAR four1
ENCODING 52
SWIDTH 834 0
DWIDTH 12 0
BBX 12 14 2 -4
BITMAP
01E0
03E0
07E0
0E60
1C60
38C0
71C0
E380
E700
FFF0
FFF0
0E00
1C00
1C00
ENDCHAR
STARTCHAR five1
ENCODING 53
SWIDTH 834 0
DWIDTH 12 0
BBX 11 14 2 -4
BITMAP
07E0
0FE0
1C00
3800
7F00
7F80
07C0
03C0
01C0
01C0
03C0
E780
FF00
7E00
ENDCHAR
STARTCHAR six1
ENCODING 54
SWIDTH 834 0
DWIDTH 12 0
BBX 11 14 2 -4
BITMAP
1F80
1FC0
38E0
3000
7600
7F00
F980
F0C0
E0C0
E0C0
E1C0
F3C0
7F80
3F00
ENDCHAR
STARTCHAR seven1
ENCODING 55
SWIDTH 834 0
DWIDTH 12 0
BBX 10 14 3 -4
BITMAP
FFC0
FFC0
01C0
0380
0300
0600
0600
0C00
0C00
1800
1800
3000
3000
3000
ENDCHAR
STARTCHAR eight1
ENCODING 56
SWIDTH 834 0
DWIDTH 12 0
BBX 11 14 2 -4
BITMAP
1FC0
3FE0
39E0
30E0
31C0
1B80
3F00
7F00
E380
C1C0
C1C0
E3C0
FF80
7F00
ENDCHAR
STARTCHAR nine1
ENCODING 57
SWIDTH 834 0
DWIDTH 12 0
BBX 11 14 2 -4
BITMAP
1F80
3FC0
79E0
70E0
6060
60E0
31E0
1FE0
0FC0
00C0
01C0
E380
7700
3E00
ENDCHAR
STARTCHAR star
ENCODING 58
SWIDTH 375 0
DWIDTH 11 0
BBX 8 8 2 -2
BITMAP
18
18
DB
FF
3C
7E
E7
C3
ENDCHAR
STARTCHAR lozenge1
ENCODING 59
SWIDTH 375 0
DWIDTH 14 0
BBX 14 14 0 -6
BITMAP
0300
0780
0FC0
1FE0
3CF0
7878
F03C
F03C
7878
3CF0
1FE0
0FC0
0780
0300
ENDCHAR
STARTCHAR braceleft2
ENCODING 60
SWIDTH 720 0
DWIDTH 12 0
BBX 9 17 2 -7
BITMAP
0780
0F80
1C00
1C00
1C00
1C00
3880
7180
E380
7180
3880
1C00
1C00
1C00
1C00
0F80
0780
ENDCHAR
STARTCHAR circleslash
ENCODING 61
SWIDTH 1152 0
DWIDTH 14 0
BBX 11 11 2 -4
BITMAP
1F00
3F80
60C0
C360
C760
CE60
DC60
D860
60C0
3F80
1F00
ENDCHAR
STARTCHAR braceright2
ENCODING 62
SWIDTH 720 0
DWIDTH 12 0
BBX 9 17 2 -7
BITMAP
F000
F800
1C00
1C00
1C00
1C00
8E00
C700
E380
C700
8E00
1C00
1C00
1C00
1C00
F800
F000
ENDCHAR
STARTCHAR triangle1
ENCODING 63
SWIDTH 1070 0
DWIDTH 12 0
BBX 9 9 2 -2
BITMAP
1C00
3E00
6300
6300
C180
C180
C180
FF80
FF80
ENDCHAR
STARTCHAR smalltriangleright
ENCODING 64
SWIDTH 1070 0
DWIDTH 12 0
BBX 9 9 2 -2
BITMAP
F800
FE00
C700
C180
C180
C180
C700
FE00
F800
ENDCHAR
STARTCHAR triangleleft
ENCODING 65
SWIDTH 1070 0
DWIDTH 15 0
BBX 12 11 2 -4
BITMAP
00F0
03F0
0F30
3E30
7830
E030
7830
3E30
0F30
03F0
00F0
ENDCHAR
STARTCHAR triangle
ENCODING 66
SWIDTH 1070 0
DWIDTH 14 0
BBX 11 14 2 -4
BITMAP
0400
0400
0E00
0E00
1B00
1B00
3180
3180
60C0
60C0
C060
C060
FFE0
FFE0
ENDCHAR
STARTCHAR triangleright
ENCODING 67
SWIDTH 1070 0
DWIDTH 15 0
BBX 12 11 2 -2
BITMAP
F000
FC00
CF00
C7C0
C1E0
C070
C1E0
C7C0
CF00
FC00
F000
ENDCHAR
STARTCHAR trianglelefteq
ENCODING 68
SWIDTH 1070 0
DWIDTH 17 0
BBX 12 14 2 -6
BITMAP
00F0
03F0
0FB0
3E30
7830
E030
7830
3E30
0FB0
03F0
00F0
0000
7FF0
7FF0
ENDCHAR
STARTCHAR trianglerighteq
ENCODING 69
SWIDTH 1070 0
DWIDTH 15 0
BBX 12 14 2 -6
BITMAP
F000
FC00
DF00
C7C0
C1E0
C070
C1E0
C7C0
DF00
FC00
F000
0000
FFE0
FFE0
ENDCHAR
STARTCHAR dotpunct
ENCODING 70
SWIDTH 375 0
DWIDTH 9 0
BBX 6 11 2 -7
BITMAP
60
60
60
00
00
00
00
00
00
FC
FC
ENDCHAR
STARTCHAR dotequal
ENCODING 71
SWIDTH 824 0
DWIDTH 14 0
BBX 11 9 2 -2
BITMAP
0E00
0E00
0E00
0000
FFE0
FFE0
0000
FFE0
FFE0
ENDCHAR
STARTCHAR wrong
ENCODING 72
SWIDTH 375 0
DWIDTH 8 0
BBX 5 12 2 -4
BITMAP
F0
F8
18
18
38
78
F0
E0
C0
C0
F8
78
ENDCHAR
STARTCHAR natural
ENCODING 73
SWIDTH 375 0
DWIDTH 9 0
BBX 6 17 2 -7
BITMAP
C0
C0
C0
CC
DC
FC
EC
EC
CC
DC
DC
FC
EC
CC
0C
0C
0C
ENDCHAR
STARTCHAR flat
ENCODING 74
SWIDTH 375 0
DWIDTH 9 0
BBX 6 14 2 -4
BITMAP
C0
C0
C0
C0
FC
FC
CC
CC
CC
DC
DC
F8
F0
E0
ENDCHAR
STARTCHAR epsilon1
ENCODING 75
SWIDTH 659 0
DWIDTH 9 0
BBX 8 9 2 -4
BITMAP
7E
FF
C3
78
F8
C0
E3
FF
7E
ENDCHAR
STARTCHAR hbar
ENCODING 76
SWIDTH 375 0
DWIDTH 11 0
BBX 9 14 0 -4
BITMAP
6000
6000
FF00
FF00
6000
6F00
7F80
7980
7180
6180
6180
6180
6180
6180
ENDCHAR
STARTCHAR imath
ENCODING 77
SWIDTH 494 0
DWIDTH 8 0
BBX 6 10 1 -4
BITMAP
18
38
68
C8
18
30
60
CC
D8
70
ENDCHAR
STARTCHAR kappa1
ENCODING 78
SWIDTH 494 0
DWIDTH 12 0
BBX 9 9 2 -4
BITMAP
F880
F980
DB80
1F00
3E00
7C00
ED80
CF80
8F80
ENDCHAR
STARTCHAR jmath
ENCODING 79
SWIDTH 494 0
DWIDTH 9 0
BBX 8 15 0 -9
BITMAP
06
0E
1B
33
63
03
03
06
0E
1C
CE
86
CE
FC
78
ENDCHAR
STARTCHAR ell
ENCODING 80
SWIDTH 375 0
DWIDTH 9 0
BBX 8 14 0 -4
BITMAP
1E
3F
77
63
63
63
63
63
66
EC
F8
63
3F
1E
ENDCHAR
STARTCHAR amalg
ENCODING 81
SWIDTH 1152 0
DWIDTH 14 0
BBX 12 14 0 -4
BITMAP
F9F0
F9F0
6060
6060
6060
6060
6060
6060
6060
6060
6060
6060
FFF0
FFF0
ENDCHAR
STARTCHAR rho1
ENCODING 82
SWIDTH 824 0
DWIDTH 11 0
BBX 8 14 2 -9
BITMAP
7E
FF
C3
C3
C3
C3
E3
F3
DE
CC
C0
C0
FC
7E
ENDCHAR
STARTCHAR top
ENCODING 83
SWIDTH 987 0
DWIDTH 12 0
BBX 11 12 0 -6
BITMAP
FFE0
FFE0
0E00
0E00
0E00
0E00
0E00
0E00
0E00
0E00
0E00
0E00
ENDCHAR
STARTCHAR Mho
ENCODING 84
SWIDTH 1152 0
DWIDTH 17 0
BBX 15 14 0 -4
BITMAP
FC7E
FC7E
CC66
1830
3018
600C
600C
600C
600C
3018
1830
1C70
0FE0
07C0
ENDCHAR
STARTCHAR floorleft
ENCODING 85
SWIDTH 720 0
DWIDTH 11 0
BBX 8 17 2 -7
BITMAP
C0
C0
C0
C0
C0
C0
C0
C0
C0
C0
C0
C0
C0
C0
FF
FF
FF
ENDCHAR
STARTCHAR floorright
ENCODING 86
SWIDTH 720 0
DWIDTH 11 0
BBX 8 17 2 -7
BITMAP
03
03
03
03
03
03
03
03
03
03
03
03
03
03
FF
FF
FF
ENDCHAR
STARTCHAR perpendicular1
ENCODING 87
SWIDTH 987 0
DWIDTH 11 0
BBX 8 9 2 -2
BITMAP
18
18
18
18
18
18
18
FF
FF
ENDCHAR
STARTCHAR box
ENCODING 88
SWIDTH 375 0
DWIDTH 14 0
BBX 11 12 2 -4
BITMAP
FFE0
FFE0
C060
C060
C060
C060
C060
C060
C060
C060
FFE0
FFE0
ENDCHAR
STARTCHAR asciicircum1
ENCODING 89
SWIDTH 300 0
DWIDTH 11 0
BBX 8 17 2 -7
BITMAP
18
3C
7E
FF
E7
C3
00
00
00
00
00
00
00
00
00
3C
7E
ENDCHAR
STARTCHAR asciitilde1
ENCODING 90
SWIDTH 300 0
DWIDTH 12 0
BBX 9 17 2 -7
BITMAP
7180
F980
DD80
CF00
C700
0000
0000
0000
0000
0000
0000
0000
0000
0000
0000
7F00
7F00
ENDCHAR
STARTCHAR leadsto
ENCODING 91
SWIDTH 1481 0
DWIDTH 20 0
BBX 17 8 2 -2
BITMAP
000C00
202600
306300
F8FF80
FFFF80
0F8300
070600
000C00
ENDCHAR
STARTCHAR quotedbl1
ENCODING 92
SWIDTH 533 0
DWIDTH 8 0
BBX 5 5 2 5
BITMAP
D8
D8
D8
D8
D8
ENDCHAR
STARTCHAR longarrowleft
ENCODING 93
SWIDTH 1481 0
DWIDTH 29 0
BBX 26 8 2 -2
BITMAP
18000000
30000000
60000000
FFFFFFC0
FFFFFFC0
60000000
30000000
18000000
ENDCHAR
STARTCHAR arrowupdown
ENCODING 94
SWIDTH 905 0
DWIDTH 11 0
BBX 8 18 2 -7
BITMAP
18
3C
7E
DB
99
18
18
18
18
18
18
18
18
99
DB
7E
3C
18
ENDCHAR
STARTCHAR longarrowright
ENCODING 95
SWIDTH 1481 0
DWIDTH 29 0
BBX 26 8 2 -2
BITMAP
00000600
00000300
00000180
FFFFFFC0
FFFFFFC0
00000180
00000300
00000600
ENDCHAR
STARTCHAR longmapsto
ENCODING 96
SWIDTH 1481 0
DWIDTH 29 0
BBX 26 8 2 -2
BITMAP
C0000600
C0000300
C0000180
FFFFFFC0
FFFFFFC0
C0000180
C0000300
C0000600
ENDCHAR
STARTCHAR longarrowdblboth
ENCODING 97
SWIDTH 1481 0
DWIDTH 29 0
BBX 26 10 2 -3
BITMAP
08000400
18000600
3FFFFF00
7FFFFF80
F00003C0
F00003C0
7FFFFF80
3FFFFF00
18000600
08000400
ENDCHAR
STARTCHAR longarrowdblleft
ENCODING 98
SWIDTH 1481 0
DWIDTH 29 0
BBX 26 10 2 -3
BITMAP
08000000
18000000
3FFFFFC0
7FFFFFC0
F0000000
F0000000
7FFFFFC0
3FFFFFC0
18000000
08000000
ENDCHAR
STARTCHAR arrowdblupdown
ENCODING 99
SWIDTH 905 0
DWIDTH 11 0
BBX 10 18 1 -7
BITMAP
0C00
1E00
3F00
7380
F3C0
3300
3300
3300
3300
3300
3300
3300
3300
F3C0
7380
3F00
1E00
0C00
ENDCHAR
STARTCHAR longarrowdblright
ENCODING 100
SWIDTH 1481 0
DWIDTH 29 0
BBX 26 10 2 -3
BITMAP
00000400
00000600
FFFFFF00
FFFFFF80
000003C0
000003C0
FFFFFF80
FFFFFF00
00000600
00000400
ENDCHAR
STARTCHAR mapsto
ENCODING 101
SWIDTH 1481 0
DWIDTH 20 0
BBX 17 8 2 -2
BITMAP
C00C00
C00600
C00300
FFFF80
FFFF80
C00300
C00600
C00C00
ENDCHAR
STARTCHAR iff
ENCODING 102
SWIDTH 1481 0
DWIDTH 32 0
BBX 26 12 3 -3
BITMAP
01BDE000
01BDE000
00318000
19BDE600
31BDE300
7DB18F80
FDB19FC0
E00001C0
7FFFFF80
3FFFFF00
18000600
08000400
ENDCHAR
STARTCHAR hookleftarrow
ENCODING 103
SWIDTH 741 0
DWIDTH 20 0
BBX 17 8 2 -2
BITMAP
180600
300300
600180
FFFF80
FFFF00
600000
300000
180000
ENDCHAR
STARTCHAR hookrightarrow
ENCODING 104
SWIDTH 741 0
DWIDTH 20 0
BBX 17 8 2 -2
BITMAP
300C00
600600
C00300
FFFF80
7FFF80
000300
000600
000C00
ENDCHAR
STARTCHAR arrownortheast
ENCODING 105
SWIDTH 741 0
DWIDTH 20 0
BBX 17 17 2 -7
BITMAP
001F80
001F80
000780
000F80
001D80
003980
007000
00E000
01C000
038000
070000
0E0000
1C0000
380000
700000
E00000
C00000
ENDCHAR
STARTCHAR arrowsoutheast
ENCODING 106
SWIDTH 741 0
DWIDTH 20 0
BBX 17 17 2 -7
BITMAP
C00000
E00000
700000
380000
1C0000
0E0000
070000
038000
01C000
00E000
007000
003980
001D80
000F80
000780
001F80
001F80
ENDCHAR
STARTCHAR arrownorthwest
ENCODING 107
SWIDTH 741 0
DWIDTH 20 0
BBX 17 17 2 -7
BITMAP
FC0000
FC0000
F00000
F80000
DC0000
CE0000
070000
038000
01C000
00E000
007000
003800
001C00
000E00
000700
000380
000180
ENDCHAR
STARTCHAR arrowsouthwest
ENCODING 108
SWIDTH 741 0
DWIDTH 20 0
BBX 17 17 2 -7
BITMAP
000180
000380
000700
000E00
001C00
003800
007000
00E000
01C000
038000
070000
CE0000
DC0000
F80000
F00000
FC0000
FC0000
ENDCHAR
STARTCHAR rightleftharpoons
ENCODING 109
SWIDTH 741 0
DWIDTH 20 0
BBX 19 11 1 -4
BITMAP
000600
000300
000180
7FFFC0
7FFFE0
000000
FFFFC0
7FFFC0
300000
180000
0C0000
ENDCHAR
STARTCHAR leftharpoondown
ENCODING 110
SWIDTH 741 0
DWIDTH 20 0
BBX 18 5 1 -2
BITMAP
FFFFC0
7FFFC0
300000
180000
0C0000
ENDCHAR
STARTCHAR rightharpoondown
ENCODING 111
SWIDTH 741 0
DWIDTH 20 0
BBX 18 5 2 -2
BITMAP
FFFFC0
FFFF80
000300
000600
000C00
ENDCHAR
STARTCHAR leftharpoonup
ENCODING 112
SWIDTH 741 0
DWIDTH 20 0
BBX 18 5 1 -1
BITMAP
0C0000
180000
300000
7FFFC0
FFFFC0
ENDCHAR
STARTCHAR rightharpoonup
ENCODING 113
SWIDTH 741 0
DWIDTH 20 0
BBX 18 5 2 1
BITMAP
000C00
000600
000300
FFFF80
FFFFC0
ENDCHAR
STARTCHAR bardbl
ENCODING 114
SWIDTH 720 0
DWIDTH 9 0
BBX 6 17 2 -7
BITMAP
CC
CC
CC
CC
CC
CC
CC
CC
CC
CC
CC
CC
CC
CC
CC
CC
CC
ENDCHAR
STARTCHAR shortbardbl
ENCODING 115
SWIDTH 720 0
DWIDTH 8 0
BBX 5 11 2 -4
BITMAP
D8
D8
D8
D8
D8
D8
D8
D8
D8
D8
D8
ENDCHAR
STARTCHAR backslash2
ENCODING 116
SWIDTH 375 0
DWIDTH 12 0
BBX 9 17 2 -7
BITMAP
C000
C000
E000
6000
7000
3000
3800
1800
1C00
0C00
0E00
0600
0700
0300
0380
0180
0180
ENDCHAR
STARTCHAR backslash3
ENCODING 117
SWIDTH 375 0
DWIDTH 11 0
BBX 8 11 2 -4
BITMAP
C0
C0
C0
E0
70
38
1C
0E
07
03
03
ENDCHAR
STARTCHAR diagonaldots
ENCODING 118
SWIDTH 375 0
DWIDTH 14 0
BBX 11 15 2 -6
BITMAP
C000
C000
C000
0000
0000
0000
0C00
0C00
0C00
0000
0000
0000
0060
0060
0060
ENDCHAR
STARTCHAR simequal
ENCODING 119
SWIDTH 824 0
DWIDTH 12 0
BBX 9 9 2 -4
BITMAP
7180
7980
DD80
CF00
C600
0000
0000
FF80
FF80
ENDCHAR
STARTCHAR florin
ENCODING 120
SWIDTH 750 0
DWIDTH 12 0
BBX 11 14 2 -7
BITMAP
0FE0
0FE0
1E00
1C00
3C00
3800
7F00
7F00
7000
F000
E000
E000
E000
E000
ENDCHAR
STARTCHAR asym
ENCODING 121
SWIDTH 375 0
DWIDTH 15 0
BBX 12 11 2 -4
BITMAP
C030
E070
70E0
3FC0
1F80
0000
1F80
3FC0
70E0
E070
C030
ENDCHAR
STARTCHAR minusplus
ENCODING 122
SWIDTH 375 0
DWIDTH 11 0
BBX 8 11 2 -4
BITMAP
FF
FF
00
18
18
18
FF
FF
18
18
18
ENDCHAR
STARTCHAR less2
ENCODING 123
SWIDTH 824 0
DWIDTH 11 0
BBX 9 8 0 -2
BITMAP
0380
0E00
3800
E000
E000
3800
0E00
0380
ENDCHAR
STARTCHAR bowtie
ENCODING 124
SWIDTH 375 0
DWIDTH 14 0
BBX 11 8 2 -1
BITMAP
E0E0
F1E0
DB60
CE60
CE60
DB60
F1E0
E0E0
ENDCHAR
STARTCHAR greater2
ENCODING 125
SWIDTH 824 0
DWIDTH 11 0
BBX 9 8 0 -2
BITMAP
E000
3800
0E00
0380
0380
0E00
3800
E000
ENDCHAR
STARTCHAR centraldots
ENCODING 126
SWIDTH 1500 0
DWIDTH 17 0
BBX 14 3 2 1
BITMAP
C30C
C30C
C30C
ENDCHAR
STARTCHAR visiblespace
ENCODING 160
SWIDTH 375 0
DWIDTH 11 0
BBX 8 4 2 -6
BITMAP
C3
C3
FF
FF
ENDCHAR
STARTCHAR dagger1
ENCODING 161
SWIDTH 375 0
DWIDTH 11 0
BBX 8 12 2 -4
BITMAP
18
18
18
FF
FF
18
18
7E
7E
18
18
18
ENDCHAR
STARTCHAR circledot
ENCODING 162
SWIDTH 1152 0
DWIDTH 14 0
BBX 11 11 2 -4
BITMAP
1F00
3F80
60C0
C060
CE60
CE60
CE60
C060
60C0
3F80
1F00
ENDCHAR
STARTCHAR propersqsuperset
ENCODING 163
SWIDTH 1070 0
DWIDTH 14 0
BBX 11 9 2 -2
BITMAP
FFE0
FFE0
0060
0060
0060
0060
0060
FFE0
FFE0
ENDCHAR
STARTCHAR reflexsqsuperset
ENCODING 164
SWIDTH 1070 0
DWIDTH 14 0
BBX 11 12 2 -4
BITMAP
FFE0
FFE0
0060
0060
0060
0060
0060
FFE0
FFE0
0000
FFE0
FFE0
ENDCHAR
STARTCHAR gradient1
ENCODING 165
SWIDTH 1070 0
DWIDTH 12 0
BBX 9 9 2 -2
BITMAP
FF80
FF80
C180
C180
E380
6300
3600
3E00
1C00
ENDCHAR
STARTCHAR propersqsubset
ENCODING 166
SWIDTH 1070 0
DWIDTH 14 0
BBX 11 9 2 -2
BITMAP
FFE0
FFE0
C000
C000
C000
C000
C000
FFE0
FFE0
ENDCHAR
STARTCHAR reflexsqsubset
ENCODING 167
SWIDTH 1070 0
DWIDTH 14 0
BBX 11 12 2 -4
BITMAP
FFE0
FFE0
C000
C000
C000
C000
C000
FFE0
FFE0
0000
FFE0
FFE0
ENDCHAR
STARTCHAR smalllozenge
ENCODING 168
SWIDTH 741 0
DWIDTH 14 0
BBX 11 11 2 -2
BITMAP
0400
0E00
1B00
3180
60C0
C060
60C0
3180
1B00
0E00
0400
ENDCHAR
STARTCHAR lessless
ENCODING 169
SWIDTH 824 0
DWIDTH 18 0
BBX 15 11 2 -4
BITMAP
0186
071C
0E38
38E0
F3C0
C300
F3C0
38E0
0E38
071C
0186
ENDCHAR
STARTCHAR greatergreater
ENCODING 170
SWIDTH 824 0
DWIDTH 18 0
BBX 15 11 2 -4
BITMAP
C300
71C0
38E0
0E38
079E
0186
079E
0E38
38E0
71C0
C300
ENDCHAR
STARTCHAR unionplus
ENCODING 171
SWIDTH 1152 0
DWIDTH 14 0
BBX 9 9 3 -2
BITMAP
C180
C180
C980
DD80
C980
C180
6300
3E00
1C00
ENDCHAR
STARTCHAR sqintersection
ENCODING 172
SWIDTH 1152 0
DWIDTH 14 0
BBX 11 9 2 -2
BITMAP
FFE0
FFE0
C060
C060
C060
C060
C060
C060
C060
ENDCHAR
STARTCHAR squnion
ENCODING 173
SWIDTH 1152 0
DWIDTH 14 0
BBX 11 9 2 -2
BITMAP
C060
C060
C060
C060
C060
C060
C060
FFE0
FFE0
ENDCHAR
STARTCHAR frown
ENCODING 174
SWIDTH 375 0
DWIDTH 15 0
BBX 12 5 2 -1
BITMAP
1F80
3FC0
6060
C030
8010
ENDCHAR
STARTCHAR smile
ENCODING 175
SWIDTH 375 0
DWIDTH 15 0
BBX 12 5 2 -1
BITMAP
8010
C030
6060
3FC0
1F80
ENDCHAR
STARTCHAR reflexprec
ENCODING 176
SWIDTH 824 0
DWIDTH 12 0
BBX 9 14 2 -6
BITMAP
0080
0180
0180
0700
1C00
F800
1C00
0700
0180
0180
0080
0000
FF80
FF80
ENDCHAR
STARTCHAR reflexsucc
ENCODING 177
SWIDTH 824 0
DWIDTH 12 0
BBX 9 14 2 -6
BITMAP
8000
C000
C000
7000
1C00
0F80
1C00
7000
C000
C000
8000
0000
FF80
FF80
ENDCHAR
STARTCHAR properprec
ENCODING 178
SWIDTH 824 0
DWIDTH 12 0
BBX 9 11 2 -4
BITMAP
0080
0180
0180
0F00
FE00
F800
FE00
0F00
0180
0180
0080
ENDCHAR
STARTCHAR propersucc
ENCODING 179
SWIDTH 824 0
DWIDTH 12 0
BBX 9 11 2 -4
BITMAP
8000
C000
C000
7800
3F80
0F80
3F80
7800
C000
C000
8000
ENDCHAR
STARTCHAR bardash
ENCODING 180
SWIDTH 741 0
DWIDTH 12 0
BBX 9 11 2 -4
BITMAP
C000
C000
C000
C000
FF80
FF80
FF80
C000
C000
C000
C000
ENDCHAR
STARTCHAR dashbar
ENCODING 181
SWIDTH 741 0
DWIDTH 12 0
BBX 9 11 2 -4
BITMAP
0180
0180
0180
0180
FF80
FF80
FF80
0180
0180
0180
0180
ENDCHAR
STARTCHAR bardashdbl
ENCODING 182
SWIDTH 741 0
DWIDTH 12 0
BBX 9 11 2 -4
BITMAP
C000
C000
C000
FF80
FF80
C000
FF80
FF80
C000
C000
C000
ENDCHAR
STARTCHAR smallintegral
ENCODING 183
SWIDTH 411 0
DWIDTH 11 0
BBX 8 14 2 -4
BITMAP
06
0F
1B
18
18
18
18
18
18
18
18
D8
F0
60
ENDCHAR
STARTCHAR circleintegral
ENCODING 184
SWIDTH 411 0
DWIDTH 12 0
BBX 9 17 2 -7
BITMAP
0700
0F80
1D80
1C00
3E00
7F00
DD80
DD80
DD80
DD80
DD80
7F00
3E00
1C00
DC00
F800
7000
ENDCHAR
STARTCHAR coproduct
ENCODING 185
SWIDTH 1235 0
DWIDTH 17 0
BBX 14 17 2 -7
BITMAP
F87C
F87C
7878
7878
7878
7878
7878
7878
7878
7878
7878
7878
7878
7878
7878
FFFC
FFFC
ENDCHAR
STARTCHAR bigcircledot
ENCODING 186
SWIDTH 1152 0
DWIDTH 17 0
BBX 14 14 2 -6
BITMAP
1FE0
3FF0
7FF8
F87C
F03C
E01C
E31C
E31C
E01C
F03C
F87C
7FF8
3FF0
1FE0
ENDCHAR
STARTCHAR bigcirclemultiply
ENCODING 187
SWIDTH 1152 0
DWIDTH 17 0
BBX 14 14 2 -6
BITMAP
1FE0
3FF0
7FF8
F07C
F8DC
ED9C
E71C
E39C
E6DC
EC7C
F83C
7FF8
3FF0
1FE0
ENDCHAR
STARTCHAR bigcircleplus
ENCODING 188
SWIDTH 1152 0
DWIDTH 17 0
BBX 14 14 2 -6
BITMAP
1FE0
3FF0
7B78
F33C
E31C
C30C
FFFC
FFFC
C30C
E31C
F33C
7B78
3FF0
1FE0
ENDCHAR
STARTCHAR biglogicaland
ENCODING 189
SWIDTH 905 0
DWIDTH 17 0
BBX 14 17 2 -7
BITMAP
0780
0780
0FC0
0CC0
1CE0
1CE0
1860
3870
3870
3030
7038
7038
6018
E01C
C00C
C00C
C00C
ENDCHAR
STARTCHAR biglogicalor
ENCODING 190
SWIDTH 905 0
DWIDTH 17 0
BBX 14 17 2 -7
BITMAP
C00C
C00C
C00C
E01C
6018
7018
7038
3030
3870
3870
1860
1CE0
1CE0
0CC0
0FC0
0780
0780
ENDCHAR
STARTCHAR bigintersection
ENCODING 191
SWIDTH 905 0
DWIDTH 17 0
BBX 14 17 2 -7
BITMAP
1FE0
3FF0
7878
F03C
E01C
E01C
E01C
E01C
E01C
E01C
E01C
E01C
E01C
E01C
E01C
E01C
E01C
ENDCHAR
STARTCHAR bigunion
ENCODING 192
SWIDTH 905 0
DWIDTH 17 0
BBX 14 17 2 -7
BITMAP
E01C
E01C
E01C
E01C
E01C
E01C
E01C
E01C
E01C
E01C
E01C
E01C
E01C
F03C
7878
3FF0
1FE0
ENDCHAR
STARTCHAR bigunionplus
ENCODING 193
SWIDTH 905 0
DWIDTH 17 0
BBX 14 17 2 -7
BITMAP
E01C
E01C
E01C
E01C
E31C
E31C
E31C
FFFC
FFFC
E31C
E31C
E31C
E01C
F03C
7878
3FF0
1FE0
ENDCHAR
STARTCHAR bigsqunion
ENCODING 194
SWIDTH 905 0
DWIDTH 17 0
BBX 14 17 2 -7
BITMAP
E01C
E01C
E01C
E01C
E01C
E01C
E01C
E01C
E01C
E01C
E01C
E01C
E01C
E01C
E01C
FFFC
FFFC
ENDCHAR
STARTCHAR bigcircle
ENCODING 195
SWIDTH 1152 0
DWIDTH 17 0
BBX 14 14 2 -4
BITMAP
1FE0
3FF0
7038
E01C
C00C
C00C
C00C
C00C
C00C
C00C
E01C
7038
3FF0
1FE0
ENDCHAR
STARTCHAR guilsinglleft
ENCODING 196
SWIDTH 375 0
DWIDTH 8 0
BBX 5 8 2 -2
BITMAP
18
38
70
E0
E0
70
38
18
ENDCHAR
STARTCHAR circleminus
ENCODING 197
SWIDTH 1152 0
DWIDTH 14 0
BBX 11 11 2 -4
BITMAP
1F00
3F80
60C0
C060
8020
BFA0
BFA0
C060
60C0
3F80
1F00
ENDCHAR
STARTCHAR smalltriangleleft
ENCODING 198
SWIDTH 1070 0
DWIDTH 12 0
BBX 9 9 2 -2
BITMAP
0780
1F80
7980
E180
C180
E180
7980
1F80
0780
ENDCHAR
STARTCHAR perthousand
ENCODING 199
SWIDTH 1500 0
DWIDTH 21 0
BBX 21 12 0 -4
BITMAP
78C000
FCC000
CD8000
CD8000
FF0000
7B0000
0678F0
06FDF8
0FCF98
0DCF98
18FDF8
1878F0
ENDCHAR
STARTCHAR existential1
ENCODING 200
SWIDTH 824 0
DWIDTH 11 0
BBX 8 14 2 -4
BITMAP
FF
FF
03
03
03
03
FF
FF
03
03
03
03
FF
FF
ENDCHAR
STARTCHAR daggerdbl1
ENCODING 201
SWIDTH 375 0
DWIDTH 11 0
BBX 8 12 2 -4
BITMAP
18
FF
FF
18
3C
7E
7E
3C
18
FF
FF
18
ENDCHAR
STARTCHAR daggerdbl
ENCODING 202
SWIDTH 375 0
DWIDTH 11 0
BBX 8 17 2 -7
BITMAP
18
DB
DB
FF
FF
18
7E
7E
18
7E
7E
18
FF
FF
DB
DB
18
ENDCHAR
STARTCHAR bigbowtie
ENCODING 203
SWIDTH 375 0
DWIDTH 17 0
BBX 14 11 2 -2
BITMAP
E01C
F03C
D86C
CCCC
C78C
C30C
C78C
CCCC
D86C
F03C
E01C
ENDCHAR
STARTCHAR circ
ENCODING 204
SWIDTH 690 0
DWIDTH 9 0
BBX 6 6 2 -1
BITMAP
78
FC
CC
CC
FC
78
ENDCHAR
STARTCHAR grave
ENCODING 205
SWIDTH 500 0
DWIDTH 6 0
BBX 4 3 2 7
BITMAP
C0
60
30
ENDCHAR
STARTCHAR circumflex
ENCODING 206
SWIDTH 500 0
DWIDTH 8 0
BBX 5 4 2 7
BITMAP
20
70
D8
88
ENDCHAR
STARTCHAR tilde
ENCODING 207
SWIDTH 500 0
DWIDTH 11 0
BBX 8 3 2 7
BITMAP
71
DB
8E
ENDCHAR
STARTCHAR longarrowboth
ENCODING 208
SWIDTH 1481 0
DWIDTH 29 0
BBX 26 8 2 -2
BITMAP
18000600
30000300
60000180
FFFFFFC0
FFFFFFC0
60000180
30000300
18000600
ENDCHAR
STARTCHAR endash
ENCODING 209
SWIDTH 834 0
DWIDTH 12 0
BBX 12 2 0 1
BITMAP
FFF0
FFF0
ENDCHAR
STARTCHAR emdash
ENCODING 210
SWIDTH 1500 0
DWIDTH 21 0
BBX 21 2 0 1
BITMAP
FFFFF8
FFFFF8
ENDCHAR
STARTCHAR Ydiaeresis
ENCODING 211
SWIDTH 1001 0
DWIDTH 14 0
BBX 11 17 2 -4
BITMAP
1B00
1B00
0000
8020
C060
C060
60C0
60C0
60C0
3180
1B00
0E00
0E00
0E00
0E00
0E00
0E00
ENDCHAR
STARTCHAR ampersand2
ENCODING 212
SWIDTH 1167 0
DWIDTH 15 0
BBX 14 14 2 -4
BITMAP
1C00
3E00
6300
6300
3FF0
1EF8
3C60
7E60
CF60
C7C0
C380
E3C4
FF6C
7C38
ENDCHAR
STARTCHAR universal1
ENCODING 213
SWIDTH 1070 0
DWIDTH 14 0
BBX 14 14 0 -4
BITMAP
C00C
C00C
6018
6018
3FF0
3FF0
1860
1860
0CC0
0CC0
0780
0780
0300
0300
ENDCHAR
STARTCHAR booleans
ENCODING 214
SWIDTH 1001 0
DWIDTH 17 0
BBX 14 14 2 -4
BITMAP
FFF0
FFF8
6C6C
6C6C
6C6C
6C7C
6FF8
6FF8
6C6C
6C6C
6C6C
6C6C
FFF8
FFF0
ENDCHAR
STARTCHAR complexnums
ENCODING 215
SWIDTH 1083 0
DWIDTH 14 0
BBX 11 14 2 -4
BITMAP
1F60
3FE0
79E0
D8E0
D860
D800
D800
D800
D800
D800
D800
7860
3FE0
1FC0
ENDCHAR
STARTCHAR natnums
ENCODING 216
SWIDTH 1083 0
DWIDTH 15 0
BBX 12 14 2 -4
BITMAP
F9F0
F9F0
7C60
6E60
6760
73E0
79E0
7CE0
6E60
6760
63E0
61E0
F8E0
F860
ENDCHAR
STARTCHAR rationalnums
ENCODING 217
SWIDTH 1083 0
DWIDTH 15 0
BBX 12 15 2 -6
BITMAP
1F80
3FC0
79E0
D9B0
D9B0
D9B0
D9B0
D9B0
D9B0
D9B0
F9F0
79E0
1F80
0FE0
01F0
ENDCHAR
STARTCHAR realnums
ENCODING 218
SWIDTH 1001 0
DWIDTH 17 0
BBX 14 14 2 -4
BITMAP
FFF0
FFF8
6C6C
6C6C
6C6C
6C6C
6FF8
6FF0
6F60
6DB0
6CD8
6CEC
FC74
FC3C
ENDCHAR
STARTCHAR integers
ENCODING 219
SWIDTH 917 0
DWIDTH 14 0
BBX 10 14 2 -4
BITMAP
FFC0
FFC0
C680
0580
0D00
0B00
1A00
1600
3400
2CC0
69C0
5B40
FE40
FFC0
ENDCHAR
STARTCHAR lesssim
ENCODING 220
SWIDTH 824 0
DWIDTH 12 0
BBX 9 12 2 -4
BITMAP
0380
0E00
3800
E000
E000
3800
0E00
0380
0000
7080
D980
8F00
ENDCHAR
STARTCHAR greatersim
ENCODING 221
SWIDTH 824 0
DWIDTH 12 0
BBX 9 12 2 -4
BITMAP
E000
3800
0E00
0380
0380
0E00
3800
E000
0000
7080
D980
8F00
ENDCHAR
STARTCHAR lessapprox
ENCODING 222
SWIDTH 824 0
DWIDTH 12 0
BBX 9 17 2 -7
BITMAP
0380
0E00
3800
E000
E000
3800
0E00
0380
0000
3080
7980
CF00
8600
0000
3080
7980
CF00
ENDCHAR
STARTCHAR greaterapprox
ENCODING 223
SWIDTH 824 0
DWIDTH 12 0
BBX 9 17 2 -7
BITMAP
E000
3800
0E00
0380
0380
0E00
3800
E000
0000
3080
7980
CF00
8600
0000
7080
D980
8F00
ENDCHAR
STARTCHAR definedas
ENCODING 224
SWIDTH 824 0
DWIDTH 11 0
BBX 8 11 2 -2
BITMAP
18
3C
66
C3
FF
00
FF
FF
00
FF
FF
ENDCHAR
STARTCHAR circleminus1
ENCODING 225
SWIDTH 1152 0
DWIDTH 14 0
BBX 11 11 2 -4
BITMAP
1F00
3F80
60C0
C060
C060
DF60
DF60
C060
60C0
3F80
1F00
ENDCHAR
STARTCHAR circleasterisk
ENCODING 226
SWIDTH 1152 0
DWIDTH 14 0
BBX 11 11 2 -4
BITMAP
1F00
3F80
64C0
D560
CE60
C460
CE60
D560
64C0
3F80
1F00
ENDCHAR
STARTCHAR circlecirc
ENCODING 227
SWIDTH 1152 0
DWIDTH 14 0
BBX 11 11 2 -4
BITMAP
1F00
3F80
60C0
CE60
DB60
D160
DB60
CE60
60C0
3F80
1F00
ENDCHAR
STARTCHAR dollar1
ENCODING 228
SWIDTH 834 0
DWIDTH 12 0
BBX 11 17 0 -6
BITMAP
1B00
3F80
7FC0
DB60
9B20
9B00
DB00
FF80
7FC0
3FE0
1B60
1B20
9B20
DB60
7FC0
3F80
1B00
ENDCHAR
STARTCHAR euro
ENCODING 229
SWIDTH 1083 0
DWIDTH 15 0
BBX 12 14 2 -6
BITMAP
0FE0
1FF0
3010
6000
FFC0
FFE0
6000
6000
FF80
FFC0
6000
3010
1FF0
0FE0
ENDCHAR
STARTCHAR therefore1
ENCODING 230
SWIDTH 1295 0
DWIDTH 14 0
BBX 11 9 2 -4
BITMAP
0E00
0E00
0E00
0000
0000
0000
C060
C060
C060
ENDCHAR
STARTCHAR coloncolon
ENCODING 231
SWIDTH 1295 0
DWIDTH 9 0
BBX 6 9 2 -4
BITMAP
CC
CC
CC
00
00
00
CC
CC
CC
ENDCHAR
STARTCHAR bigsqintersection
ENCODING 232
SWIDTH 905 0
DWIDTH 17 0
BBX 14 17 2 -7
BITMAP
FFFC
FFFC
E01C
E01C
E01C
E01C
E01C
E01C
E01C
E01C
E01C
E01C
E01C
E01C
E01C
E01C
E01C
ENDCHAR
STARTCHAR semanticsleft
ENCODING 233
SWIDTH 1295 0
DWIDTH 9 0
BBX 8 17 2 -7
BITMAP
FF
FF
D8
D8
D8
D8
D8
D8
D8
D8
D8
D8
D8
D8
D8
FF
FF
ENDCHAR
STARTCHAR semanticsright
ENCODING 234
SWIDTH 1295 0
DWIDTH 9 0
BBX 8 17 0 -7
BITMAP
FF
FF
1B
1B
1B
1B
1B
1B
1B
1B
1B
1B
1B
1B
1B
FF
FF
ENDCHAR
STARTCHAR cataleft
ENCODING 235
SWIDTH 1500 0
DWIDTH 9 0
BBX 6 17 2 -7
BITMAP
1C
3C
2C
6C
CC
CC
8C
8C
8C
8C
8C
CC
CC
6C
2C
3C
1C
ENDCHAR
STARTCHAR cataright
ENCODING 236
SWIDTH 1500 0
DWIDTH 9 0
BBX 6 17 2 -7
BITMAP
E0
F0
D0
D8
CC
CC
C4
C4
C4
C4
C4
CC
CC
D8
D0
F0
E0
ENDCHAR
ENDFONT
